<?xml version="1.0" encoding="us-ascii" standalone="no"?><svg xmlns="http://www.w3.org/2000/svg" xmlns:xlink="http://www.w3.org/1999/xlink" contentStyleType="text/css" height="223px" preserveAspectRatio="none" style="width:588px;height:223px;background:#FFFFFF;" version="1.1" viewBox="0 0 588 223" width="588px" zoomAndPan="magnify"><defs/><g><!--class PropertySpace--><g id="elem_PropertySpace"><rect codeLine="1" fill="#F1F1F1" height="83.1958" id="PropertySpace" rx="2.5" ry="2.5" style="stroke:#181818;stroke-width:0.5;" width="299" x="146.75" y="7"/><ellipse cx="248.5" cy="23" fill="#A9DCDF" rx="11" ry="11" style="stroke:#181818;stroke-width:1.0;"/><path d="M243,28 L245.1094,28 L246.2344,24.875 L250.7344,24.875 L251.8906,28 L253.9844,28 L249.5469,16.2344 L247.4219,16.2344 L243,28 Z M246.9063,22.9688 L248.4375,18.5156 L250.0156,22.9688 L246.9063,22.9688 Z " fill="#000000"/><text fill="#000000" font-family="sans-serif" font-size="14" font-style="italic" lengthAdjust="spacing" textLength="87" x="269" y="27.697">PropertySpace</text><line style="stroke:#181818;stroke-width:0.5;" x1="147.75" x2="444.75" y1="39" y2="39"/><line style="stroke:#181818;stroke-width:0.5;" x1="147.75" x2="444.75" y1="47" y2="47"/><ellipse cx="157.75" cy="61.299" fill="#84BE84" rx="3" ry="3" style="stroke:#038048;stroke-width:1.0;"/><text fill="#000000" font-family="sans-serif" font-size="14" lengthAdjust="spacing" textLength="273" x="166.75" y="64.4959">enterSpace(player: Player, steps: int): String</text><ellipse cx="157.75" cy="78.8969" fill="#84BE84" rx="3" ry="3" style="stroke:#038048;stroke-width:1.0;"/><text fill="#000000" font-family="sans-serif" font-size="14" font-style="italic" lengthAdjust="spacing" textLength="131" x="166.75" y="82.0939">getRent(steps: int): int</text></g><!--class ColoredPropertySpace--><g id="elem_ColoredPropertySpace"><rect codeLine="5" fill="#F1F1F1" height="65.5979" id="ColoredPropertySpace" rx="2.5" ry="2.5" style="stroke:#181818;stroke-width:0.5;" width="170" x="7" y="150.5"/><ellipse cx="22" cy="166.5" fill="#ADD1B2" rx="11" ry="11" style="stroke:#181818;stroke-width:1.0;"/><path d="M15.6875,166.5156 C15.6875,170.2031 18.1406,172.6719 21.8906,172.6719 C22.9531,172.6719 24.1875,172.3906 25.5156,171.875 L25.8125,171.75 L25.125,170.0313 L24.8281,170.1719 C23.8281,170.5625 22.9531,170.75 22.2656,170.75 C19.5625,170.75 17.7656,169.1563 17.7656,166.5156 C17.7656,164.1094 19.4375,162.4219 21.9531,162.4219 C23.1094,162.4219 23.6406,162.5 24.6406,162.8438 L24.9688,162.9688 L25.6719,161.2969 L25.3125,161.1563 C24.25,160.7188 23.125,160.5 21.9219,160.5 C18.25,160.5 15.6875,162.8594 15.6875,166.5156 Z " fill="#000000"/><text fill="#000000" font-family="sans-serif" font-size="14" lengthAdjust="spacing" textLength="138" x="36" y="171.197">ColoredPropertySpace</text><line style="stroke:#181818;stroke-width:0.5;" x1="8" x2="176" y1="182.5" y2="182.5"/><line style="stroke:#181818;stroke-width:0.5;" x1="8" x2="176" y1="190.5" y2="190.5"/><ellipse cx="18" cy="204.799" fill="#84BE84" rx="3" ry="3" style="stroke:#038048;stroke-width:1.0;"/><text fill="#000000" font-family="sans-serif" font-size="14" lengthAdjust="spacing" textLength="141" x="27" y="207.9959">getRent(steps: int): int</text></g><!--class RailroadSpace--><g id="elem_RailroadSpace"><rect codeLine="8" fill="#F1F1F1" height="65.5979" id="RailroadSpace" rx="2.5" ry="2.5" style="stroke:#181818;stroke-width:0.5;" width="167" x="212.75" y="150.5"/><ellipse cx="249.35" cy="166.5" fill="#ADD1B2" rx="11" ry="11" style="stroke:#181818;stroke-width:1.0;"/><path d="M243.0375,166.5156 C243.0375,170.2031 245.4906,172.6719 249.2406,172.6719 C250.3031,172.6719 251.5375,172.3906 252.8656,171.875 L253.1625,171.75 L252.475,170.0313 L252.1781,170.1719 C251.1781,170.5625 250.3031,170.75 249.6156,170.75 C246.9125,170.75 245.1156,169.1563 245.1156,166.5156 C245.1156,164.1094 246.7875,162.4219 249.3031,162.4219 C250.4594,162.4219 250.9906,162.5 251.9906,162.8438 L252.3188,162.9688 L253.0219,161.2969 L252.6625,161.1563 C251.6,160.7188 250.475,160.5 249.2719,160.5 C245.6,160.5 243.0375,162.8594 243.0375,166.5156 Z " fill="#000000"/><text fill="#000000" font-family="sans-serif" font-size="14" lengthAdjust="spacing" textLength="87" x="268.15" y="171.197">RailroadSpace</text><line style="stroke:#181818;stroke-width:0.5;" x1="213.75" x2="378.75" y1="182.5" y2="182.5"/><line style="stroke:#181818;stroke-width:0.5;" x1="213.75" x2="378.75" y1="190.5" y2="190.5"/><ellipse cx="223.75" cy="204.799" fill="#84BE84" rx="3" ry="3" style="stroke:#038048;stroke-width:1.0;"/><text fill="#000000" font-family="sans-serif" font-size="14" lengthAdjust="spacing" textLength="141" x="232.75" y="207.9959">getRent(steps: int): int</text></g><!--class UtilitySpace--><g id="elem_UtilitySpace"><rect codeLine="11" fill="#F1F1F1" height="65.5979" id="UtilitySpace" rx="2.5" ry="2.5" style="stroke:#181818;stroke-width:0.5;" width="167" x="414.75" y="150.5"/><ellipse cx="457.65" cy="166.5" fill="#ADD1B2" rx="11" ry="11" style="stroke:#181818;stroke-width:1.0;"/><path d="M451.3375,166.5156 C451.3375,170.2031 453.7906,172.6719 457.5406,172.6719 C458.6031,172.6719 459.8375,172.3906 461.1656,171.875 L461.4625,171.75 L460.775,170.0313 L460.4781,170.1719 C459.4781,170.5625 458.6031,170.75 457.9156,170.75 C455.2125,170.75 453.4156,169.1563 453.4156,166.5156 C453.4156,164.1094 455.0875,162.4219 457.6031,162.4219 C458.7594,162.4219 459.2906,162.5 460.2906,162.8438 L460.6188,162.9688 L461.3219,161.2969 L460.9625,161.1563 C459.9,160.7188 458.775,160.5 457.5719,160.5 C453.9,160.5 451.3375,162.8594 451.3375,166.5156 Z " fill="#000000"/><text fill="#000000" font-family="sans-serif" font-size="14" lengthAdjust="spacing" textLength="73" x="477.85" y="171.197">UtilitySpace</text><line style="stroke:#181818;stroke-width:0.5;" x1="415.75" x2="580.75" y1="182.5" y2="182.5"/><line style="stroke:#181818;stroke-width:0.5;" x1="415.75" x2="580.75" y1="190.5" y2="190.5"/><ellipse cx="425.75" cy="204.799" fill="#84BE84" rx="3" ry="3" style="stroke:#038048;stroke-width:1.0;"/><text fill="#000000" font-family="sans-serif" font-size="14" lengthAdjust="spacing" textLength="141" x="434.75" y="207.9959">getRent(steps: int): int</text></g><!--reverse link PropertySpace to ColoredPropertySpace--><g id="link_PropertySpace_ColoredPropertySpace"><path d="M216.898,101.071 C191.451,117.6618 163.999,135.5595 141.33,150.3389 " fill="none" id="PropertySpace-backto-ColoredPropertySpace" style="stroke:#181818;stroke-width:1.0;"/><polygon fill="none" points="213.108,95.186,233.685,90.127,220.754,106.914,213.108,95.186" style="stroke:#181818;stroke-width:1.0;"/></g><!--reverse link PropertySpace to RailroadSpace--><g id="link_PropertySpace_RailroadSpace"><path d="M296,110.384 C296,124.0945 296,138.1257 296,150.124 " fill="none" id="PropertySpace-backto-RailroadSpace" style="stroke:#181818;stroke-width:1.0;"/><polygon fill="none" points="289,110.127,296,90.127,303,110.127,289,110.127" style="stroke:#181818;stroke-width:1.0;"/></g><!--reverse link PropertySpace to UtilitySpace--><g id="link_PropertySpace_UtilitySpace"><path d="M374.688,101.309 C399.784,117.833 426.814,135.6303 449.154,150.3389 " fill="none" id="PropertySpace-backto-UtilitySpace" style="stroke:#181818;stroke-width:1.0;"/><polygon fill="none" points="370.559,106.972,357.704,90.127,378.258,95.279,370.559,106.972" style="stroke:#181818;stroke-width:1.0;"/></g><!--SRC=[hOun2iCm34Ltdq9ZIdi2hxr0IEW1L5i4WR2DhA4XvEurQIXaoDHgaE2Z_z_7PpN5O104QuLUSo6rUImO21O7RQv0oKWtgIk2Cwc7Vhitg4QbUk1a5m-ZAQTfDqraGpDsXu-sOS6TkRhLVR3tB5af7kdqCahnhDDP_3TpG1RD6FyIzZ0M_hNO6m00]--></g></svg>